<?xml version="1.0" encoding="utf-8"?>
<svg version="1.1" id="Layer_1" viewBox="0 0 512 512" width="256px" height="256px" fill="#333333" stroke="#333333" stroke-width="0.00512" xmlns="http://www.w3.org/2000/svg" xmlns:bx="https://boxy-svg.com">
  <defs>
    <style bx:fonts="IBM Plex Sans">@import url(https://fonts.googleapis.com/css2?family=IBM+Plex+Sans%3Aital%2Cwght%400%2C100%3B0%2C200%3B0%2C300%3B0%2C400%3B0%2C500%3B0%2C600%3B0%2C700%3B1%2C100%3B1%2C200%3B1%2C300%3B1%2C400%3B1%2C500%3B1%2C600%3B1%2C700&amp;display=swap);</style>
  </defs>
  <g id="SVGRepo_bgCarrier" stroke-width="0"/>
  <g id="SVGRepo_tracerCarrier" stroke-linecap="round" stroke-linejoin="round" stroke="#CCCCCC" stroke-width="1.024"/>
  <g id="SVGRepo_iconCarrier">
    <g>
      <rect x="140.016" y="391.314" style="fill:#A54E31;" width="225.782" height="29.257"/>
      <rect x="140.016" y="309.812" style="fill:#A54E31;" width="225.782" height="25.078"/>
      <rect x="140.016" y="334.89" style="fill:#A54E31;" width="225.782" height="25.078"/>
    </g>
    <g>
      <circle style="fill:#4ac600;" cx="61.649" cy="371.461" r="51.2"/>
      <path style="fill:#4ac600;" d="M424.229,367.282L424.229,367.282c-42.704,0-77.322-34.619-77.322-77.322V164.571 c0-42.704,34.619-77.322,77.322-77.322l0,0c42.704,0,77.322,34.619,77.322,77.322v125.388 C501.551,332.663,466.932,367.282,424.229,367.282z"/>
    </g>
    <path d="M424.229,76.8c-48.397,0-87.771,39.374-87.771,87.771v125.388c0,3.178,0.18,6.313,0.511,9.404h-4.691v-4.719 c0-5.771-4.679-10.449-10.449-10.449s-10.449,4.678-10.449,10.449v4.719H194.417v-4.719c0-5.771-4.679-10.449-10.449-10.449 s-10.449,4.678-10.449,10.449v4.719h-33.503c-5.77,0-10.449,4.678-10.449,10.449v25.078v25.078c0,5.771,4.679,10.449,10.449,10.449 h33.503v10.449h-33.503c-5.77,0-10.449,4.678-10.449,10.449v29.257c0,5.771,4.679,10.449,10.449,10.449h19.919v37.616H72.098v-36.43 c29.031-4.98,51.2-30.315,51.2-60.745c0-33.994-27.656-61.649-61.649-61.649S0,337.468,0,371.461 c0,30.431,22.169,55.765,51.2,60.745v36.43h-6.811c-5.77,0-10.449,4.678-10.449,10.449s4.679,10.449,10.449,10.449h312.966 c5.77,0,10.449-4.678,10.449-10.449s-4.679-10.449-10.449-10.449h-11.494V431.02h19.94c5.77,0,10.449-4.678,10.449-10.449v-29.257 c0-5.771-4.679-10.449-10.449-10.449h-33.523v-10.449h14.629c5.77,0,10.449-4.678,10.449-10.449c0-5.771-4.679-10.449-10.449-10.449 H150.465v-4.18H355.82h0.375c14.03,17.202,34.438,28.989,57.584,31.748v91.55h-18.384c-5.77,0-10.449,4.678-10.449,10.449 s4.679,10.449,10.449,10.449h72.214c5.77,0,10.449-4.678,10.449-10.449s-4.679-10.449-10.449-10.449h-32.932v-91.55 C478.164,371.902,512,334.819,512,289.959V164.571C512,116.174,472.625,76.8,424.229,76.8z M20.898,371.461 c0-22.471,18.28-40.751,40.751-40.751s40.751,18.28,40.751,40.751c0,18.859-12.879,34.761-30.302,39.387v-14.02l16.641-16.642 c4.08-4.08,4.08-10.697,0-14.777c-4.081-4.08-10.698-4.08-14.778,0l-12.312,12.313l-13.835-13.837c-4.08-4.08-10.695-4.08-14.778,0 c-4.08,4.08-4.08,10.697,0,14.777L51.2,396.828v14.02C33.777,406.222,20.898,390.32,20.898,371.461z M180.833,468.637V431.02h6.269 v37.616H180.833z M297.796,431.02v37.616h-89.796V431.02H297.796z M324.963,468.637h-6.269V431.02h6.269V468.637z M355.352,410.122 H150.465v-8.359h204.887V410.122z M311.38,380.865H194.417v-10.449H311.38V380.865z M150.465,320.261h191.388 c0.52,1.412,1.08,2.803,1.671,4.18H150.465V320.261z M491.102,289.959c0,33.32-24.497,61.02-56.424,66.052V312.56l27.843-29.726 c3.944-4.212,3.728-10.824-0.484-14.769c-4.21-3.944-10.824-3.728-14.77,0.483l-12.59,13.441v-33.618l27.843-29.726 c3.944-4.212,3.728-10.824-0.484-14.77c-4.21-3.944-10.824-3.728-14.77,0.483l-12.59,13.443v-18.225 c0-5.771-4.679-10.449-10.449-10.449s-10.449,4.678-10.449,10.449v47.05l-10.757-11.484c-3.946-4.212-10.559-4.427-14.77-0.483 c-4.212,3.944-4.428,10.558-0.484,14.769l26.011,27.769v78.815c-31.928-5.032-56.424-32.732-56.424-66.052V164.57 c0-36.874,29.999-66.873,66.873-66.873s66.873,29.999,66.873,66.873V289.959z"/>
  </g>
  <text style="font-family: 'IBM Plex Sans'; font-size: 98.9163px; font-weight: 700; letter-spacing: 0.4px; paint-order: fill; stroke: rgb(95, 95, 95); word-spacing: 20.2px; white-space: pre; transform-box: fill-box; transform-origin: 136.723px 41.698px;" transform="matrix(1.052775, 0, 0, 1.162599, 3.901557, -34.06749)"><tspan x="64.314" y="150.118">Park</tspan><tspan x="64.314" dy="1em">​</tspan><tspan>pal</tspan></text>
  <text style="white-space: pre; fill: rgb(51, 51, 51); font-family: Arial, sans-serif; font-size: 28px;" x="265.098" y="146.98"> </text>
</svg>